<svg width="48" height="48" viewBox="0 0 48 48" fill="none" xmlns="http://www.w3.org/2000/svg">
<path d="M24.3122 33.3835L21.3825 36.3132C20.0874 37.6079 18.331 38.3353 16.4997 38.3353C14.6684 38.3353 12.912 37.6079 11.6169 36.3132C10.3221 35.018 9.59473 33.2617 9.59473 31.4304C9.59473 29.599 10.3221 27.8427 11.6169 26.5475L17.4763 20.6882C18.7714 19.3934 20.5277 18.666 22.3591 18.666C24.1904 18.666 25.9468 19.3934 27.2419 20.6882" stroke="black" stroke-width="4.26136" stroke-linecap="round"/>
<path d="M24.3125 13.8522L27.2422 10.9225C28.5373 9.62776 30.2937 8.90039 32.125 8.90039C33.9563 8.90039 35.7127 9.62776 37.0078 10.9225C38.3026 12.2177 39.03 13.974 39.03 15.8054C39.03 17.6367 38.3026 19.393 37.0078 20.6882L31.1484 26.5475C29.8533 27.8423 28.097 28.5697 26.2656 28.5697C24.4343 28.5697 22.6779 27.8423 21.3828 26.5475" stroke="black" stroke-width="4.26136" stroke-linecap="round"/>
</svg>
