<svg width="33" height="34" viewBox="0 0 33 34" fill="none" xmlns="http://www.w3.org/2000/svg">
<path opacity="0.2" d="M26.8123 12.3027H19.5935V5.08398L26.8123 12.3027Z" fill="black"/>
<path d="M28.8748 20.5527C28.8748 20.8262 28.7661 21.0885 28.5727 21.2819C28.3793 21.4753 28.117 21.584 27.8435 21.584H24.7498V23.6465H26.8123C27.0858 23.6465 27.3481 23.7551 27.5415 23.9485C27.7349 24.1419 27.8435 24.4042 27.8435 24.6777C27.8435 24.9512 27.7349 25.2135 27.5415 25.4069C27.3481 25.6003 27.0858 25.709 26.8123 25.709H24.7498V27.7715C24.7498 28.045 24.6411 28.3073 24.4477 28.5007C24.2543 28.6941 23.992 28.8027 23.7185 28.8027C23.445 28.8027 23.1827 28.6941 22.9893 28.5007C22.7959 28.3073 22.6873 28.045 22.6873 27.7715V20.5527C22.6873 20.2792 22.7959 20.0169 22.9893 19.8235C23.1827 19.6301 23.445 19.5215 23.7185 19.5215H27.8435C28.117 19.5215 28.3793 19.6301 28.5727 19.8235C28.7661 20.0169 28.8748 20.2792 28.8748 20.5527ZM11.8591 23.1309C11.8591 24.0881 11.4789 25.0062 10.802 25.6831C10.1251 26.36 9.20702 26.7402 8.24976 26.7402H7.21851V27.7715C7.21851 28.045 7.10986 28.3073 6.91646 28.5007C6.72306 28.6941 6.46076 28.8027 6.18726 28.8027C5.91375 28.8027 5.65145 28.6941 5.45805 28.5007C5.26466 28.3073 5.15601 28.045 5.15601 27.7715V20.5527C5.15601 20.2792 5.26466 20.0169 5.45805 19.8235C5.65145 19.6301 5.91375 19.5215 6.18726 19.5215H8.24976C9.20702 19.5215 10.1251 19.9018 10.802 20.5786C11.4789 21.2555 11.8591 22.1736 11.8591 23.1309ZM9.79663 23.1309C9.79663 22.7206 9.63366 22.3272 9.34356 22.0371C9.05347 21.747 8.66001 21.584 8.24976 21.584H7.21851V24.6777H8.24976C8.66001 24.6777 9.05347 24.5148 9.34356 24.2247C9.63366 23.9346 9.79663 23.5411 9.79663 23.1309ZM21.1404 24.1621C21.1404 25.3929 20.6515 26.5732 19.7812 27.4435C18.9109 28.3138 17.7305 28.8027 16.4998 28.8027H14.4373C14.1638 28.8027 13.9014 28.6941 13.7081 28.5007C13.5147 28.3073 13.406 28.045 13.406 27.7715V20.5527C13.406 20.2792 13.5147 20.0169 13.7081 19.8235C13.9014 19.6301 14.1638 19.5215 14.4373 19.5215H16.4998C17.7305 19.5215 18.9109 20.0104 19.7812 20.8807C20.6515 21.751 21.1404 22.9313 21.1404 24.1621ZM19.0779 24.1621C19.0779 23.4783 18.8063 22.8226 18.3228 22.3391C17.8393 21.8556 17.1835 21.584 16.4998 21.584H15.4685V26.7402H16.4998C17.1835 26.7402 17.8393 26.4686 18.3228 25.9851C18.8063 25.5016 19.0779 24.8459 19.0779 24.1621ZM5.15601 15.3965V6.11523C5.15601 5.56823 5.3733 5.04362 5.7601 4.65683C6.14689 4.27003 6.6715 4.05273 7.21851 4.05273H19.5935C19.729 4.05263 19.8631 4.07921 19.9883 4.13097C20.1135 4.18273 20.2273 4.25864 20.3231 4.35438L27.5419 11.5731C27.6376 11.669 27.7135 11.7827 27.7653 11.9079C27.817 12.0331 27.8436 12.1673 27.8435 12.3027V15.3965C27.8435 15.67 27.7349 15.9323 27.5415 16.1257C27.3481 16.3191 27.0858 16.4277 26.8123 16.4277C26.5388 16.4277 26.2764 16.3191 26.0831 16.1257C25.8897 15.9323 25.781 15.67 25.781 15.3965V13.334H19.5935C19.32 13.334 19.0577 13.2253 18.8643 13.0319C18.6709 12.8385 18.5623 12.5762 18.5623 12.3027V6.11523H7.21851V15.3965C7.21851 15.67 7.10986 15.9323 6.91646 16.1257C6.72306 16.3191 6.46076 16.4277 6.18726 16.4277C5.91375 16.4277 5.65145 16.3191 5.45805 16.1257C5.26466 15.9323 5.15601 15.67 5.15601 15.3965ZM20.6248 11.2715H24.3231L20.6248 7.57316V11.2715Z" fill="black"/>
</svg>
