<svg width="48" height="48" viewBox="0 0 48 48" fill="none" xmlns="http://www.w3.org/2000/svg">
<path d="M30.9849 20.093L22.1958 14.2336C21.9751 14.0864 21.7186 14.0019 21.4537 13.989C21.1887 13.9762 20.9253 14.0356 20.6914 14.1608C20.4576 14.286 20.2621 14.4723 20.1259 14.6999C19.9897 14.9275 19.9178 15.1879 19.918 15.4531V27.1719C19.9178 27.4371 19.9897 27.6975 20.1259 27.9251C20.2621 28.1527 20.4576 28.339 20.6914 28.4642C20.9253 28.5894 21.1887 28.6488 21.4537 28.636C21.7186 28.6231 21.9751 28.5386 22.1958 28.3914L30.9849 22.532C31.1858 22.3983 31.3506 22.217 31.4645 22.0042C31.5785 21.7915 31.6381 21.5539 31.6381 21.3125C31.6381 21.0711 31.5785 20.8335 31.4645 20.6208C31.3506 20.408 31.1858 20.2267 30.9849 20.093ZM22.8477 24.4344V18.1997L27.5315 21.3125L22.8477 24.4344ZM40.4258 8.12891H8.19922C7.42222 8.12891 6.67704 8.43757 6.12762 8.98699C5.57819 9.53641 5.26953 10.2816 5.26953 11.0586V31.5664C5.26953 32.3434 5.57819 33.0886 6.12762 33.638C6.67704 34.1874 7.42222 34.4961 8.19922 34.4961H40.4258C41.2028 34.4961 41.948 34.1874 42.4974 33.638C43.0468 33.0886 43.3555 32.3434 43.3555 31.5664V11.0586C43.3555 10.2816 43.0468 9.53641 42.4974 8.98699C41.948 8.43757 41.2028 8.12891 40.4258 8.12891ZM40.4258 31.5664H8.19922V11.0586H40.4258V31.5664ZM43.3555 38.8906C43.3555 39.2791 43.2011 39.6517 42.9264 39.9264C42.6517 40.2011 42.2791 40.3555 41.8906 40.3555H6.73438C6.34587 40.3555 5.97329 40.2011 5.69857 39.9264C5.42386 39.6517 5.26953 39.2791 5.26953 38.8906C5.26953 38.5021 5.42386 38.1295 5.69857 37.8548C5.97329 37.5801 6.34587 37.4258 6.73438 37.4258H41.8906C42.2791 37.4258 42.6517 37.5801 42.9264 37.8548C43.2011 38.1295 43.3555 38.5021 43.3555 38.8906Z" fill="black"/>
</svg>
